PathFileType	4	(X/Y/Z)	C:\Users\Basilio\Documents\Thesis Gigler\squatting_fais\c3dfiles\039\SJ_pre2\markers_experimental.trc
DataRate	CameraRate	NumFrames	NumMarkers	Units	OrigDataRate	OrigDataStartFrame	OrigNumFrames
200.000000	200.000000	4	61	mm	200.000000	649	1732
Frame#	Time	FHD			LBHD			RBHD			C7			T10			CLAV			LSHO			LUUPA			LMUPA			LDUPA			LLEP			LMEP			LRAD			LUL			LRFIN			RSHO			RUPA1			RMUPA			RDUPA			RLEP			RMEP			RRAD			RUL			RUFIN			LASI			RASI			USACR			LSACR			RSACR			LTHI1			LTHI2			LTHI3			LTHI4			LLFC			LMFC			LTIB1			LTIB2			LTIB3			LTIB4			LLMAL			LMMAL			LHEE			LMT1			LMT2			LMT5			RTHI			RTHI2			RTHI3			RTHI4			RLFC			RMFC			RTIB1			RTIB2			RTIB3			RTIB4			RLMAL			RMMAL			RHEE			RMT1			RMT2			RMT5			
		X1	Y1	Z1	X2	Y2	Z2	X3	Y3	Z3	X4	Y4	Z4	X5	Y5	Z5	X6	Y6	Z6	X7	Y7	Z7	X8	Y8	Z8	X9	Y9	Z9	X10	Y10	Z10	X11	Y11	Z11	X12	Y12	Z12	X13	Y13	Z13	X14	Y14	Z14	X15	Y15	Z15	X16	Y16	Z16	X17	Y17	Z17	X18	Y18	Z18	X19	Y19	Z19	X20	Y20	Z20	X21	Y21	Z21	X22	Y22	Z22	X23	Y23	Z23	X24	Y24	Z24	X25	Y25	Z25	X26	Y26	Z26	X27	Y27	Z27	X28	Y28	Z28	X29	Y29	Z29	X30	Y30	Z30	X31	Y31	Z31	X32	Y32	Z32	X33	Y33	Z33	X34	Y34	Z34	X35	Y35	Z35	X36	Y36	Z36	X37	Y37	Z37	X38	Y38	Z38	X39	Y39	Z39	X40	Y40	Z40	X41	Y41	Z41	X42	Y42	Z42	X43	Y43	Z43	X44	Y44	Z44	X45	Y45	Z45	X46	Y46	Z46	X47	Y47	Z47	X48	Y48	Z48	X49	Y49	Z49	X50	Y50	Z50	X51	Y51	Z51	X52	Y52	Z52	X53	Y53	Z53	X54	Y54	Z54	X55	Y55	Z55	X56	Y56	Z56	X57	Y57	Z57	X58	Y58	Z58	X59	Y59	Z59	X60	Y60	Z60	X61	Y61	Z61	

650	3.245	127.4982223510742	1246.307739257813	-818.7442626953127	-23.27686309814453	1229.731811523438	-948.922790527344	-5.30619239807129	1233.382080078125	-808.2713623046877	-89.74988555908205	1161.415771484375	-889.6780395507815	-349.5640869140626	996.3732910156252	-894.333435058594	-44.62351608276368	1007.442810058594	-886.5120239257815	-27.44420051574708	1075.277099609375	-1070.677856445313	-154.7084655761719	1050.327026367188	-1253.652709960938	-159.465316772461	1000.395385742188	-1254.87060546875	-193.6100006103516	1015.981506347656	-1301.41064453125	-243.1342926025391	972.5682373046877	-1333.384521484375	-305.2729797363282	1033.7333984375	-1308.903564453125	-453.2276000976564	862.159606933594	-1158.525146484375	-429.0542907714845	801.333923339844	-1196.640502929688	-420.2946777343751	846.7757568359377	-1100.917236328125	-36.03176879882813	1065.868041992188	-700.7863769531251	-185.8289489746094	1097.601196289063	-549.9585571289064	-195.7600097656251	1051.095458984375	-533.2614746093751	-233.9826812744141	1083.74462890625	-500.408172607422	-284.7066345214844	1043.081298828125	-466.556610107422	-341.8712463378907	1099.902099609375	-509.0297851562501	-430.0574645996095	903.901306152344	-692.0253906250001	-440.1011352539064	854.032409667969	-635.5408325195314	-390.278045654297	858.825866699219	-736.4954833984376	-376.0926513671876	792.7356567382815	-1025.856811523438	nan	nan	nan	-483.0207519531251	934.4515380859377	-897.486755371094	-512.5457153320314	919.404479980469	-926.0564575195315	-515.8743286132814	915.0363769531252	-869.2021484375002	-352.0003051757813	637.7296752929689	-1129.915405273438	-271.4630737304688	609.3606567382814	-1142.167846679688	-236.5959930419922	641.9133911132814	-1134.698974609375	-251.0316009521485	551.5559082031251	-1130.694091796875	-172.8521423339844	482.6883544921876	-1126.74560546875	-133.6425018310547	463.7076416015626	-1024.647216796875	-135.1742401123047	340.5295715332032	-1113.732788085938	-213.6436767578126	323.8570251464844	-1152.370361328125	-178.1120758056641	308.4964294433594	-1134.02685546875	-202.5658111572266	233.0635986328126	-1093.9873046875	-323.1430053710938	97.64725494384768	-1119.6103515625	-298.4506225585938	90.18776702880861	-1034.891967773438	-396.032196044922	42.41636276245118	-1077.189697265625	-161.6944427490235	54.12555313110353	-1094.3974609375	-172.8509521484375	54.99487304687501	-1136.434936523438	-224.0874786376954	31.91596221923829	-1181.8681640625	-349.4577026367188	652.1693115234376	-697.4599609375001	-283.5663452148438	647.4145507812501	-686.5522460937501	-262.8876342773438	672.6105957031251	-696.2195434570314	-241.9609832763672	574.9176635742189	-674.3024291992189	-178.6156005859375	470.4262695312501	-682.1109619140626	-138.6756134033203	468.0946044921876	-787.8502197265627	-182.5138549804688	274.2935791015626	-698.1196289062501	-281.1718139648438	232.4204254150391	-690.5009765625001	-238.1207733154297	213.2617645263672	-692.4545898437501	-233.1574859619141	161.0443878173828	-721.3934326171876	-321.0716247558594	90.38389587402345	-701.9062500000001	-287.5853271484376	96.42414093017581	-786.4141235351565	-390.4565429687501	40.7055778503418	-751.5042114257814	-157.1947326660157	50.40993881225587	-730.5032348632814	-166.7313995361328	57.94996643066408	-685.6701660156251	-223.4272918701172	31.65828132629395	-637.8477172851564	
651	3.25	127.7755279541016	1245.06689453125	-818.4949340820315	-22.79826927185059	1228.670043945313	-949.2651977539065	-5.206433296203614	1232.133666992188	-807.9674072265627	-89.51436614990236	1160.342895507813	-889.6461181640627	-349.5124511718751	995.7275390625002	-894.2504882812502	-44.29199600219727	1006.068908691406	-886.3809204101565	-27.10672760009766	1074.138916015625	-1070.796142578125	-154.154296875	1049.506591796875	-1253.816040039063	-158.1516876220703	998.8986816406252	-1255.572143554688	-192.8603210449219	1014.910034179688	-1301.54736328125	-243.0178375244141	971.6560668945315	-1333.286499023438	-304.9747619628907	1033.023803710938	-1309.04052734375	-453.3462829589845	861.759704589844	-1158.576293945313	-429.1997070312501	800.8098754882815	-1196.585693359375	-420.4722595214845	846.3813476562502	-1100.896850585938	-35.86119842529298	1064.697631835938	-700.6999511718751	-185.555648803711	1096.466064453125	-549.9964599609376	-195.6414642333985	1050.258666992188	-533.1253051757814	-233.8225555419922	1082.897583007813	-500.4482727050782	-284.6008300781251	1042.246459960938	-466.3613586425782	-341.4410705566407	1099.043823242188	-508.7656555175782	-430.2041320800782	903.4094238281252	-691.9356689453126	-440.2623596191407	853.4553222656252	-635.4674682617189	-390.3670349121095	858.1999511718752	-736.3505859375001	-376.6364746093751	792.098815917969	-1025.807983398438	nan	nan	nan	-483.1511535644532	934.0964355468752	-897.375671386719	-512.7843017578126	919.125427246094	-926.0002441406252	-516.1509399414064	914.733093261719	-869.1922607421877	-352.0649414062501	637.4850463867189	-1129.921508789063	-271.4584960937501	609.1895141601564	-1142.070068359375	-236.7362518310547	641.8286743164064	-1134.669921875	-251.0620117187501	551.4078979492189	-1130.698364257813	-172.7427825927735	482.5925903320314	-1126.663940429688	-133.5524444580078	463.696258544922	-1024.572998046875	-135.0663757324219	340.5078125000001	-1113.601318359375	-213.5435791015626	323.8567810058594	-1152.270629882813	-178.0716552734375	308.4981384277344	-1133.98583984375	-202.4810943603516	233.0304260253907	-1093.97998046875	-322.7436218261719	97.31842803955081	-1119.584228515625	-298.4657897949219	90.1759719848633	-1034.866821289063	-396.0431213378907	42.44309997558594	-1077.180297851563	-161.7142028808594	54.15218353271486	-1094.37060546875	-172.9254608154297	55.00952911376955	-1136.47705078125	-224.0753021240235	31.91223526000977	-1181.854248046875	-349.6334838867188	651.8142700195314	-697.4618530273439	-283.6860656738282	647.2497558593751	-686.5823974609376	-263.1748046875001	672.4707031250001	-696.1782836914064	-242.0303039550782	574.8021240234376	-674.2896118164064	-178.6573944091797	470.4422912597657	-682.1338500976564	-138.7045593261719	468.0893859863282	-787.841491699219	-182.498275756836	274.2867126464844	-698.1093750000001	-281.1633300781251	232.4234619140626	-690.4964599609376	-238.1179504394532	213.2317352294922	-692.4951171875001	-233.1758117675782	161.0517883300782	-721.3602294921876	-321.0681152343751	90.3840789794922	-701.9022827148439	-287.5963439941407	96.42191314697268	-786.4199829101565	-390.6692810058595	40.88914108276368	-751.6401367187501	-157.1304779052735	50.27867126464845	-730.4672851562501	-166.7557678222657	57.9779510498047	-685.7030639648439	-223.3818817138672	31.68538856506348	-637.8365478515626	
652	3.255	128.0116577148438	1243.9365234375	-818.4676513671877	-22.68891334533692	1227.607421875	-949.1172485351565	-4.558166980743409	1230.718505859375	-808.3012695312502	-89.3091278076172	1159.288818359375	-889.6233520507815	-349.4077758789063	995.0216064453127	-894.1956176757815	-44.40470504760743	1005.064758300781	-886.3369140625002	-26.94965362548829	1073.20654296875	-1070.829467773438	-153.8295288085938	1048.634399414063	-1253.894287109375	-158.6697845458985	998.5171508789065	-1255.353759765625	-193.0501861572266	1014.12109375	-1301.691772460938	-242.8314208984376	970.861755371094	-1333.305053710938	-304.7495422363282	1032.32763671875	-1309.18896484375	-453.515106201172	861.3433837890627	-1158.589477539063	-429.3598022460939	800.3146972656252	-1196.405151367188	-420.5175170898439	846.0012817382815	-1100.812866210938	-35.73548889160157	1063.679077148438	-700.7738037109376	-185.327865600586	1095.85302734375	-550.0422363281251	-195.5065612792969	1049.370727539063	-533.1499023437501	-233.6379547119141	1082.121337890625	-500.3380126953126	-284.5335998535157	1041.333984375	-466.8378295898439	-341.5141601562501	1098.782348632813	-509.0706481933595	-430.2407226562501	902.8508911132815	-691.8295898437501	-440.3431091308595	853.045349121094	-635.4794921875001	-390.4320068359376	857.489440917969	-736.1943969726564	-378.4245605468751	790.2246093750002	-1025.906005859375	nan	nan	nan	-483.296356201172	933.2786865234377	-897.1619873046877	-513.0360717773439	918.7515869140627	-925.928161621094	-516.3461914062501	914.3785400390627	-869.1941528320315	-352.1754760742188	637.2755126953126	-1129.873779296875	-271.5204772949219	609.0512084960939	-1141.988647460938	-236.8364410400391	641.6999511718751	-1134.513305664063	-251.1298370361329	551.2343750000001	-1130.644409179688	-172.7288513183594	482.5757446289064	-1126.589599609375	-133.4972229003907	463.5441284179689	-1024.543212890625	-135.0257873535157	340.5471191406251	-1113.575439453125	-213.4211578369141	323.8850708007813	-1152.248046875	-177.9525451660157	308.5145263671876	-1133.98388671875	-202.4001464843751	233.0182189941407	-1093.936157226563	-323.0900878906251	97.67044830322268	-1119.558227539063	-298.4564208984376	90.15909576416017	-1034.854614257813	-396.0388488769532	42.47507095336915	-1077.224487304688	-161.679183959961	54.15651702880861	-1094.384643554688	-173.1609802246094	54.66966247558595	-1136.119384765625	-224.3781890869141	32.27154541015626	-1181.933837890625	-349.8591308593751	651.4786987304689	-697.5411987304689	-283.8397216796876	647.0708618164064	-686.5686645507814	-263.4160766601563	672.2921752929689	-696.1780395507814	-242.1322174072266	574.7561645507814	-674.3131713867189	-178.6030731201172	470.342498779297	-682.1267089843751	-138.5647888183594	468.1299743652345	-787.8699340820315	-182.4432373046875	274.2761840820313	-698.0889282226564	-281.1804504394532	232.3848419189454	-690.5338745117189	-238.0502166748047	213.2569122314454	-692.4796142578126	-233.1061248779297	161.0000457763672	-721.3717651367189	-321.0649719238282	90.38433074951173	-701.8955078125001	-287.5492858886719	96.42466735839847	-786.416931152344	-390.427459716797	40.69736099243165	-751.5296020507814	-157.1921691894532	50.3713836669922	-730.4873657226564	-166.7518920898438	58.0169143676758	-685.7097778320314	-223.3973999023438	31.70732879638673	-637.8560791015626	
653	3.26	128.184814453125	1242.671142578125	-818.3968505859377	-22.35901260375977	1226.408203125	-948.9749755859377	-4.693930625915528	1230.062622070313	-807.7988281250002	-89.28606414794923	1158.250854492188	-889.5418701171877	-349.4260864257813	994.3635864257815	-894.106872558594	-44.31373596191407	1004.256530761719	-886.4290771484377	-27.01745414733887	1072.102783203125	-1070.6572265625	-153.6295013427735	1047.434814453125	-1253.96337890625	-158.4777984619141	997.3254394531252	-1255.287109375	-193.0270233154297	1013.151794433594	-1301.427856445313	-242.7281951904297	969.851257324219	-1333.331298828125	-304.5875244140626	1031.628173828125	-1309.328125	-453.6702270507814	861.0020751953127	-1158.568359375	-429.5282592773439	799.7957153320315	-1196.417358398438	-420.5867614746095	845.608093261719	-1100.856323242188	-35.53961181640626	1062.414428710938	-700.6529541015626	-184.8743591308594	1094.89013671875	-549.9394531250001	-195.4227752685547	1048.489013671875	-533.0564575195314	-233.4895477294922	1081.357666015625	-500.2689819335939	-284.0115661621094	1040.8017578125	-466.5053100585939	-341.2771606445313	1097.662719726563	-508.7546691894532	-430.0464172363282	902.178161621094	-691.6909790039064	-440.5537719726564	852.495788574219	-635.3261108398439	-390.6605224609376	857.119323730469	-736.1601562500001	-376.3642578125001	792.1638183593752	-1025.674926757813	nan	nan	nan	-483.6035766601564	933.6110839843752	-897.1175537109377	-513.3794555664064	918.3427734375002	-925.949157714844	-516.6116333007814	913.9861450195315	-869.0967407226565	-352.3250122070313	637.0510864257814	-1129.869384765625	-271.6306762695313	608.8563842773439	-1141.916748046875	-236.8922576904297	641.6456298828126	-1134.509643554688	-251.1053314208985	551.0609130859376	-1130.594482421875	-172.5877227783203	482.5014648437501	-1126.529174804688	-133.4584197998047	463.5025939941407	-1024.389282226563	-134.9149322509766	340.4567871093751	-1113.45263671875	-213.2521057128907	323.7970886230469	-1152.161010742188	-177.8957977294922	308.4816284179688	-1133.975463867188	-202.3877410888672	232.9552459716797	-1093.904418945313	-323.0685424804688	97.66116333007815	-1119.570068359375	-298.4541931152344	90.12913513183595	-1034.834106445313	-396.079315185547	42.46440124511719	-1077.09814453125	-161.655990600586	54.09018707275392	-1094.358276367188	-172.9469451904297	55.00475311279298	-1136.471069335938	-224.4179229736329	32.2536964416504	-1181.850830078125	-350.0242309570313	651.1669311523439	-697.5466308593751	-283.9971313476563	646.9391479492189	-686.6112670898439	-263.6402587890626	672.0869140625001	-696.2188720703126	-242.1988525390626	574.5934448242189	-674.3097534179689	-178.6087493896485	470.2852172851564	-682.2307128906251	-138.5988159179688	468.0709838867189	-787.933532714844	-182.4391632080078	274.2453002929688	-698.1020507812501	-281.0996704101563	232.3736572265626	-690.5339355468751	-238.1053619384766	213.2044372558594	-692.5844726562501	-233.112045288086	160.9786529541016	-721.3871459960939	-321.0422973632813	90.35101318359376	-701.9361572265626	-287.5250854492188	96.39372253417972	-786.4140625000002	-390.4464721679689	40.69145584106446	-751.5173950195314	-157.1548309326172	50.35628890991212	-730.4956665039064	-166.7472076416016	57.92718887329103	-685.7041625976564	-223.4114074707032	31.73841094970704	-637.8634033203126	
